<?xml version="1.0" encoding="UTF-8"?>
<svg version="1.1" viewBox="0 0 2048 1312" width="624" height="400" xmlns="http://www.w3.org/2000/svg">
<path transform="translate(1076,574)" d="m0 0 18 1 119 16 69 10 93 12 5 2 1 1 5 60 5 64 6 56 5 68 2 19v9l-13 10-9 7-12 8-17 13-13 9-9 6-14 10-12 8-16 11-18 12-13 9-10 6-19 12-35 21-27 15-20 11-18 9-11 6-28 13-16 8-35 15-9 4-25 10-24 9-17 7-34 11-28 9-37 10-30 8-45 9-36 6-60 7-33 3-24 1h-26l-33-2-29-3-42-6-39-8-33-10-15-6-16-6-18-8-28-14-24-15-12-8-10-7-13-11-9-7-11-11-8-7-5-5-11-12-7-8-12-15-14-20-11-18-4-6-11-23-7-14-9-24-5-17-5-16-7-39-2-25v-63l3-31 8-51 4-18h3l1 52 2 21 8 43 8 27 9 27 7 16 10 19 6 11 11 15 7 10 7 7 7 8 7 7 14 11 9 7 16 9 28 13 14 4 19 5 20 3 23 2h31l32-3 20-3 23-5 17-4 18-6 16-5 26-9 17-6 14-7 15-6 12-5 10-6 28-13 14-8 24-13 12-7 14-9 16-10 15-10 13-9 15-11 10-7 10-8 13-10 16-13 10-9 8-6 8-8 11-9 11-11 8-7 47-47 7-8 9-9 7-8 4-5h2v-2l5-4 9-11 5-6 5-5 8-9 7-8 12-14 9-10 7-9 11-12z" fill="#FCD609"/>
<path transform="translate(1076,574)" d="m0 0 18 1 119 16 69 10 93 12 5 2-2 1v2l-8 7-36 33-8 7-17 16-13 12-8 7-10 9-12 11-8 7-13 11-10 9-8 7-10 9-11 9-15 13-11 10-11 9-17 14-10 8-17 14-14 11-18 14-10 8-21 16-38 26-23 15-18 11-30 18-16 8-19 10-30 15-41 18-17 7-26 9-21 8-27 8-21 6-21 5-30 7-43 7-58 6-25 1h-40l-18-1-47-5-36-7-25-7-25-8-31-13-24-13-16-10-19-14-15-14-15-15-7-8-9-11-11-17-10-18-9-21-13-40-7-34-6-45-1-9-1-28-1-12 1-12v-27l3-14h3l1 52 2 21 8 43 8 27 9 27 7 16 10 19 6 11 11 15 7 10 7 7 7 8 7 7 14 11 9 7 16 9 28 13 14 4 19 5 20 3 23 2h31l32-3 20-3 23-5 17-4 18-6 16-5 26-9 17-6 14-7 15-6 12-5 10-6 28-13 14-8 24-13 12-7 14-9 16-10 15-10 13-9 15-11 10-7 10-8 13-10 16-13 10-9 8-6 8-8 11-9 11-11 8-7 47-47 7-8 9-9 7-8 4-5h2v-2l5-4 9-11 5-6 5-5 8-9 7-8 12-14 9-10 7-9 11-12z" fill="#00F5FD"/>
<path transform="translate(786,204)" d="m0 0h72l51 3 39 5 36 6 49 11 26 7 21 7 20 6 23 8 18 7 35 14-3 5-6 7-12 16-9 11-8 11-8 10-11 15-9 11-10 14-7 8-21 28-9 11-10 14h-5l-19-10-27-13-26-11-16-7-19-7-28-9-33-8-33-6-25-4-28-2h-69l-24 2-30 5-34 7-29 8-29 10-21 8-41 20-12 7-15 10-14 9-14 11-14 12-10 9-12 11-15 15-11 14-8 10-11 15-15 23-13 24-10 21-14 37-7 27-4 25-3 24-1 16v22l2 25 4 32 5 23 5 20 7 18 6 16-1 4-10-10-8-10-13-18-12-21-9-17-9-23-6-19-9-40-3-20-1-20v-35l2-31 5-27 6-28 5-19 10-32 9-21 9-20 6-12 12-22 7-11 16-24 10-13 9-12 9-10 9-11 11-11 6-7 8-7 17-16 28-22 14-10 20-13 16-10 19-10 35-17 27-10 25-9 31-9 33-8 48-8 29-3z" fill="#00F5FD"/>
<path transform="translate(1487,68)" d="m0 0h9l88 9 49 4 99 9 60 6 101 9 5 1 3 25 4 43 5 57 3 33 4 47 5 44 6 70 4 42v9l-23 23-8 7-18 18-8 7-8 8-4 1-3-16-4-28-6-34-5-33-8-53-6-33-6-41-6-40-6-34-4-33-18-1-35-4-63-6-82-8-44-5-55-5-40-4-45-4-4-1 1-4 13-19 7-8 8-11 10-13 11-15 9-12z" fill="#00F5FD"/>
<path transform="translate(1353,244)" d="m0 0h12l125 11 47 5 61 5 41 4 49 4 38 4 2 3 3 47 8 75 4 52 5 52 4 46 6 56 1 15v11l-12 9-17 14-8 7-18 14-14 12-3-1-5-36-8-45-5-35-6-39-8-47-5-34-5-33-8-53-21-3-66-6-39-4-128-12-41-5-48-4-8-1v-3l9-11 11-14 10-13 7-8 6-8 11-13 8-11z" fill="#00F5FD"/>
<path transform="translate(766,294)" d="m0 0h34l32 2 27 3 30 5 43 8 39 9 39 10 26 8 27 9 28 11 15 6 1 4-9 11-8 10-12 16-7 9-8 10-10 14h-5l-19-10-27-13-26-11-16-7-19-7-28-9-33-8-33-6-25-4-28-2h-69l-24 2-30 5-34 7-29 8-29 10-21 8-41 20-12 7-15 10-14 9-14 11-14 12-10 9-12 11-15 15-11 14-8 10-11 15-15 23-13 24-10 21-14 37-7 27-4 25-3 24-1 16v22l2 25 4 32 5 23 5 20 7 18 6 16-1 4-8-8-3-9-11-24-8-20-6-22-4-22-1-11v-50l2-29 7-45 10-39 11-33 13-31 12-25 8-14 10-16 7-10 12-16 10-13 11-13 9-10 14-14 8-7 14-12 16-13 19-14 21-14 15-9 27-14 21-10 20-8 33-12 23-6 31-7 32-5 24-2z" fill="#FCD609"/>
<path transform="translate(1207,424)" d="m0 0h13l39 3 68 7 58 5 31 3 48 4 68 7 11 1 3 1 1 2 6 66 4 48 5 45 5 60 4 39 4 51v9l-10 10-18 13-10 8-16 12-6 4h-2l-3-13-6-41-4-25-5-33-5-27-5-35-8-53-6-33-4-28-7-2-35-4-48-4-40-4-47-4-52-6-58-5-37-4 2-4 9-10 8-10 8-9 9-11 8-9 9-11 7-8z" fill="#00F5FD"/>
<path transform="translate(1896,107)" d="m0 0h2l2 14 5 53 5 57 3 33 4 47 5 44 6 70 4 42v9l-23 23-8 7-18 18-8 7-8 8-4 1-3-16-4-28-6-34-5-33-8-53-6-33-6-41-6-40-6-34-4-31 1-4 12-11 50-50 7-8 15-14z" fill="#FDD609"/>
<path transform="translate(1725,277)" d="m0 0 3 3 3 47 8 75 4 52 5 52 4 46 6 56 1 15v11l-12 9-17 14-8 7-18 14-14 12-3-1-5-36-8-45-5-35-6-39-8-47-5-34-5-33-7-46v-9l39-39 5-4 7-8 32-32z" fill="#FDD609"/>
<path transform="translate(1545,455)" d="m0 0 2 2 6 66 4 48 5 45 5 60 4 39 4 51v9l-10 10-18 13-10 8-16 12-6 4h-2l-3-13-6-41-4-25-5-33-5-27-5-35-8-53-6-33-4-30 17-16 10-10 8-7 12-13z" fill="#FCD609"/>
</svg>
