<?xml version="1.0" encoding="UTF-8"?>
<svg version="1.1" viewBox="0 0 2048 793" width="803" height="311" xmlns="http://www.w3.org/2000/svg">
<path transform="translate(404,364)" d="m0 0 37 4 73 10 7 2 2 14 7 83v10l-13 9-17 12-33 22-18 11-23 12-33 16-30 12-31 10-28 7-30 5-17 2-15 1h-25l-21-2-25-5-27-9-19-10-13-9-10-8-17-17-10-14-9-16-9-27-3-16v-43l3-17 2 2 2 18 6 23 6 15 6 12 10 13 8 8 14 9 15 6 9 2 9 1h20l19-2 25-7 21-8 20-9 23-12 19-12 17-12 11-9 13-11 7-7 8-7 26-26 7-8 9-10 11-14z" fill="#FED40C"/>
<path transform="translate(1749,274)" d="m0 0h49l15 1 15 24 12 18 12 19 11 18 19 29 14 22 2 1-1-2v-128l3-2h44l17 1v261l-5 1h-47l-7-9-15-24-21-32-12-19-14-23-7-10-11-17-9-14-1 147-63 1-1-1v-261z" fill="#FED40C"/>
<path transform="translate(1288,274)" d="m0 0h15l25 1 19 3 18 6 19 10 17 12 16 16 11 16 8 15 7 20 3 16 1 11v17l-3 19-5 17-9 19-8 12-11 12-7 7-10 8-14 9-15 7-16 5-20 4-19 1h-109l-1-1v-261zm-24 61v142h54l18-4 14-7 9-7 11-11 8-14 5-17v-21l-4-15-7-14-7-9-8-8-13-8-16-6-6-1z" fill="#FED40C"/>
<path transform="translate(946,272)" d="m0 0h29l17 3 17 5 19 9 12 8 13 10 12 13 11 16 8 15 7 19 3 15 2 18v12l-3 20-5 17-7 17-9 15-13 15-9 10-15 11-16 9-14 6-19 5-14 2h-25l-17-3-16-5-16-7-12-7-13-10-12-11-9-11-10-15-8-17-5-15-4-24v-23l3-19 6-18 8-17 8-12 13-16 8-8 17-12 19-10 17-6 14-3zm6 63-10 2-13 5-11 7-12 11-8 11-6 13-3 13v19l4 16 8 15 11 12 11 9 10 5 12 4 7 1h18l16-4 10-5 12-9 8-8 8-13 5-12 2-8 1-12-2-17-4-12-6-11-8-10-9-8-13-8-14-5-7-1z" fill="#FED40C"/>
<path transform="translate(404,364)" d="m0 0 37 4 73 10 6 1v2l-8 7-13 13-11 9-9 9-11 9-12 11-14 12-9 7-13 11-17 13-12 9-19 12-21 12-28 14-29 11-25 7-12 3-26 4-10 1h-44l-20-3-17-4-14-5-17-9-14-10-9-9-10-14-8-16-4-13-4-20v-17l2 2 6 21 5 13 6 12 10 13 8 8 14 9 15 6 9 2 9 1h20l19-2 25-7 21-8 20-9 23-12 19-12 17-12 11-9 13-11 7-7 8-7 26-26 7-8 9-10 11-14z" fill="#00F6FE"/>
<path transform="translate(287,222)" d="m0 0h41l28 3 26 5 25 7 31 11 4 2-2 4-12 16-20 26-9 11-5 5-20-9-25-10-19-5-22-4-13-1h-25l-22 3-18 4-21 7-21 10-15 10-10 8-11 10-9 11-10 15-9 17-7 21-4 20v29l5 24 4 13-1 3-7-8-9-15-6-13-5-19-2-14v-24l4-25 7-23 8-18 9-16 8-11 8-10 9-10 10-10 16-12 18-11 19-9 30-10 23-5z" fill="#00F6FE"/>
<path transform="translate(1559,275)" d="m0 0h65v261l-63 1-2-5z" fill="#FED40C"/>
<path transform="translate(562,170)" d="m0 0 26 2 89 8 41 3 2 1 7 77 4 45 1 11v10l-18 18-6 5h-2l-6-35-13-81-2-14-2-1-108-11-37-4v-3l13-17 10-13z" fill="#00F6FE"/>
<path transform="translate(511,237)" d="m0 0 139 12 4 1 2 17 7 78 3 41-5 5-9 8-9 7-4 2-2-10-12-75-6-39-18-1-110-11-6-1 2-4 11-14 9-11z" fill="#00F6FE"/>
<path transform="translate(276,256)" d="m0 0h27l31 4 33 7 24 7 25 10-2 5-12 14-7 9-12-5-21-9-17-6-15-4-22-4-13-1h-25l-22 3-18 4-21 7-21 10-15 10-10 8-11 10-9 11-10 15-9 17-7 21-4 20v29l5 24 4 13-1 3-7-8-6-24-2-17v-11l2-20 5-23 8-21 9-19 9-14 10-13 4-5 8-7 12-10 17-12 18-10 15-6 15-5 24-5z" fill="#FDD40C"/>
<path transform="translate(455,306)" d="m0 0 26 2 101 9 3 2 2 16 4 45 3 33 2 27-5 5-8 7-10 7-2-2-11-70-6-36v-3l-47-4-77-8 3-5 11-12 9-11z" fill="#00F6FE"/>
<path transform="translate(717,185)" d="m0 0h3l6 63 4 50 2 19v10l-18 18-6 5h-2l-6-35-13-81-2-16 16-15 15-16z" fill="#FED40C"/>
<path transform="translate(653,251)" d="m0 0h1l2 16 7 78 3 41-5 5-9 8-9 7-4 2-2-10-12-75-6-39 29-29z" fill="#FED40C"/>
<path transform="translate(583,319)" d="m0 0h2l2 16 4 45 3 33 2 27-5 5-8 7-10 7-2-2-11-70-6-36 1-5 13-12z" fill="#FED40C"/>
</svg>
