<?xml version="1.0" encoding="UTF-8"?>
<svg version="1.1" viewBox="0 0 2048 1634" width="559" height="446" xmlns="http://www.w3.org/2000/svg">
<path transform="translate(1042,557)" d="m0 0 21 2 70 10 40 5 67 10 2 6 6 79 8 86v10l-11 9-12 8-17 12-14 10-18 13-17 11-23 15-19 11-20 12-14 7-22 12-34 16-33 14-24 9-19 7-32 10-41 11-35 7-50 7-41 3h-23l-37-3-21-3-28-5-26-8-24-9-30-15-16-10-18-13-13-12-12-12-7-8-8-9-13-19-11-19-8-17-8-21-7-31-3-20-1-10v-34l4-34 6-35h2l1 30 4 30 5 22 6 20 11 26 7 12 8 12 11 12 10 10 16 11 19 10 27 7 10 2 27 2 19-1 18-2 40-9 26-9 20-8 18-8 15-7 20-10 22-12 13-8 11-7 19-13 11-8 9-7 11-8 12-10 8-7 14-12 16-15 28-28 1-2h2l2-4 9-9 7-8 16-17 9-11 9-10 7-9z" fill="#FED60A"/>
<path transform="translate(1042,557)" d="m0 0 21 2 70 10 40 5 67 10v2h-2l-2 4-10 9-8 7-13 12-16 15-8 7-14 12-7 7-8 7-10 9-11 9-10 9-11 9-15 13-11 9-10 8-11 9-17 13-12 9-18 13-20 13-13 8-23 13-13 8-23 11-31 14-19 7-17 6-22 7-21 6-24 5-21 4-24 3-18 2-16 1h-31l-27-2-29-4-31-8-17-6-18-8-18-10-10-7-13-10-13-13-8-9-10-15-10-19-6-15-7-24-6-28-3-32-1-23v-11l3-18h2l1 30 4 30 5 22 6 20 11 26 7 12 8 12 11 12 10 10 16 11 19 10 27 7 10 2 27 2 19-1 18-2 40-9 26-9 20-8 18-8 15-7 20-10 22-12 13-8 11-7 19-13 11-8 9-7 11-8 12-10 8-7 14-12 16-15 28-28 1-2h2l2-4 9-9 7-8 16-17 9-11 9-10 7-9z" fill="#00F2FB"/>
<path transform="translate(847,316)" d="m0 0h60l32 3 35 5 36 7 44 13 25 9 27 11v4l-10 12-6 8-10 13-24 32-8 10-11 14-10 13-4-1-30-15-29-12-27-9-27-6-25-5-20-2-37-1-28 2-30 5-32 8-20 7-24 10-23 12-22 15-12 10-10 8-9 8-8 10-7 7-7 10-9 12-13 22-8 17-9 23-7 30-4 30v20l3 26 6 29 7 21 3 7-1 3-9-10-10-13-6-10-10-19-10-30-4-18-2-18v-43l3-26 4-18 9-31 6-15 9-21 12-22 17-25 10-11 7-9 14-15 11-11 11-9 13-10 21-14 20-12 25-12 17-7 27-9 24-6 31-6 30-4z" fill="#00F3FC"/>
<path transform="translate(1316,1102)" d="m0 0h56l2 1 6 12 7 10 11 18 11 17 13 20 11 17 7 11 1 1 1-107h55l1 1v221l-2 1h-45l-10-15-16-25-10-16-13-20-9-14-12-19-6-10-4-4 1 6v67l-1 50h-54l-1-2z" fill="#FED60A"/>
<path transform="translate(851,1102)" d="m0 0h107l21 3 16 6 17 9 9 7 12 11 9 11 8 13 9 23 3 15v30l-4 17-9 22-12 17-14 14-15 10-17 8-25 6-9 1h-105l-1-5zm57 52-1 4v115h44l12-2 12-5 12-8 7-7 6-10 4-8 3-12v-14l-4-15-8-15-12-11-10-6-11-4-14-2z" fill="#FED60A"/>
<path transform="translate(635,1100)" d="m0 0h28l18 3 15 5 20 11 14 12 11 12 9 14 8 16 4 13 2 13 1 20-2 19-4 15-9 19-10 15-5 6-5 5-13 11-15 9-22 8-20 4h-22l-12-2-16-5-18-8-16-11-8-7-7-8-8-11-9-16-4-11-5-19-1-6v-21l3-17 5-17 8-16 9-13 8-8 4-5 14-11 18-10 15-5zm7 55-12 3-14 7-12 11-7 10-5 12-3 15 1 9 4 14 5 10 8 10 7 6 10 6 9 4 13 2h9l11-2 9-4 10-6 10-9 6-8 5-12 3-12v-13l-4-15-6-12-9-10-11-9-17-6-5-1z" fill="#FED60A"/>
<path transform="translate(1310,228)" d="m0 0 41 3 74 7 93 8 52 5 7 1 1 1 7 77 7 74 3 38 4 40v12l-30 30h-2v2l-8 7-2 2h-3l-6-42-8-48-11-71-9-54-1-8-3-1-57-6-75-7-74-8-34-3-7-1v-3l8-11 11-15 13-17 8-11z" fill="#00F3FC"/>
<path transform="translate(1223,342)" d="m0 0 22 1 143 14 74 6 4 2 2 18 5 53 6 61 4 50 4 40v10l-17 14-14 11-13 10h-2l-3-13-4-26-5-33-7-42-5-35-10-59-1-1-76-8-53-5-55-6-42-4v-3l11-14 12-15 13-17z" fill="#00F3FC"/>
<path transform="translate(1129,459)" d="m0 0 45 4 83 8 59 5 31 3 2 1 7 73 6 62 5 60 1 13-5 5-9 8-11 8-13 9-4-1-9-56-6-40-7-43-5-34-2-12-113-12-59-5-38-4v-4l10-11 9-11 11-13z" fill="#00F3FC"/>
<path transform="translate(827,375)" d="m0 0h42l27 3 52 9 30 7 23 6 33 11 21 8 8 3-2 5-10 12-7 9-11 14-6 8-4-1-30-15-29-12-27-9-27-6-25-5-20-2-37-1-28 2-30 5-32 8-20 7-24 10-23 12-22 15-12 10-10 8-9 8-8 10-7 7-7 10-9 12-13 22-8 17-9 23-7 30-4 30v20l3 26 6 29 7 21 3 7-1 3-9-10-3-9-9-26-3-15-3-24v-15l3-31 3-23 5-20 7-23 11-28 5-10 6-11 13-21 12-16 9-10 11-12 15-14 14-11 15-11 20-13 12-7 20-9 14-6 21-7 23-6 26-5z" fill="#FDD60A"/>
<path transform="translate(1577,253)" d="m0 0h1l7 77 7 74 3 38 4 40v12l-30 30h-2v2l-8 7-2 2h-3l-6-42-8-48-11-71-9-54-1-10 8-7 47-47z" fill="#FED60A"/>
<path transform="translate(1464,365)" d="m0 0h2l2 18 5 53 6 61 4 50 4 40v10l-17 14-14 11-13 10h-2l-3-13-4-26-5-33-7-42-5-35-10-60 5-5h2v-2h2l2-4 45-45z" fill="#FED60A"/>
<path transform="translate(1155,1102)" d="m0 0h57v222l-1 1h-55l-1-6z" fill="#FED60A"/>
<path transform="translate(1348,480)" d="m0 0h1l7 73 6 62 5 60 1 13-5 5-9 8-11 8-13 9-4-1-9-56-6-40-7-43-5-34-2-13 8-7 7-8z" fill="#FED60A"/>
</svg>
